#!OML:ASF H:\LiuWeirdWalks\Patient Classification 1\Patient 1\Session 1\male.ASF
:FULLY-SPECIFIED
:DEGREES
257
root 1.35442 17.3935 -26.9805 10.4358 8.73988 -2.03935
lowerback 8.74264 0.541261 -5.66254
upperback -0.691223 0.175313 0.946952
thorax -5.6647 0.274568 4.16294
lowerneck -11.8689 -0.298216 7.85995
upperneck 17.5764 -1.09257 -4.49147
head 7.27476 -0.408807 -2.87646
rclavicle 2.03754e-014 -2.38542e-014
rhumerus -34.0228 -5.11108 -79.9252
rradius 35.2007
rwrist -10.133
rhand -14.7608 -4.03976
rfingers 7.12502
rthumb 11.3954 -33.7101
lclavicle 2.03754e-014 -2.38542e-014
lhumerus -36.325 -4.39405 86.9014
lradius 37.7182
lwrist 11.9771
lhand -12.6171 0.483602
lfingers 7.12502
lthumb 13.4622 30.0285
rfemur -23.7169 -12.8556 15.1674
rtibia 73.8551
rfoot 5.55945 -11.9402
rtoes -1.83158
lfemur -22.8329 -6.63183 -23.1188
ltibia 41.0254
lfoot -20.2295 20.4149
ltoes -2.78038
258
root 1.35577 17.3734 -26.9521 10.5991 8.80008 -2.01405
lowerback 8.85499 0.596246 -5.50088
upperback -0.700653 0.257447 0.922095
thorax -5.74623 0.312275 4.03421
lowerneck -11.8146 -0.428743 7.74333
upperneck 17.3598 -1.27388 -4.34448
head 7.18493 -0.493215 -2.8208
rclavicle -1.22253e-014 -3.97569e-015
rhumerus -34.009 -5.20408 -79.9198
rradius 35.3695
rwrist -10.2406
rhand -14.7499 -4.07746
rfingers 7.12502
rthumb 11.406 -33.7472
lclavicle -1.22253e-014 -3.97569e-015
lhumerus -36.3081 -4.69509 87.0793
lradius 38.0291
lwrist 12.0248
lhand -12.6469 0.391195
lfingers 7.12502
lthumb 13.4335 29.938
rfemur -23.8048 -12.9048 15.195
rtibia 74.1697
rfoot 5.85291 -11.8312
rtoes -1.76259
lfemur -23.1342 -6.69621 -23.1282
ltibia 41.4708
lfoot -20.3982 20.5059
ltoes -2.97106
259
root 1.35716 17.3523 -26.9236 10.7738 8.86422 -1.99819
lowerback 8.96105 0.595588 -5.35768
upperback -0.713585 0.266964 0.946023
thorax -5.82 0.315325 3.97735
lowerneck -11.7502 -0.484498 7.60141
upperneck 17.1229 -1.33619 -4.25562
head 7.09436 -0.527972 -2.76877
rclavicle -5.26779e-015 -1.98785e-015
rhumerus -33.9537 -5.07064 -79.9402
rradius 35.5396
rwrist -10.3614
rhand -14.7347 -4.10511
rfingers 7.12502
rthumb 11.4206 -33.7741
lclavicle -5.26779e-015 -1.98785e-015
lhumerus -36.3207 -4.78779 87.2409
lradius 38.3923
lwrist 12.0727
lhand -12.6758 0.271626
lfingers 7.12502
lthumb 13.4057 29.8203
rfemur -23.9033 -12.9401 15.2376
rtibia 74.468
rfoot 6.16713 -11.7264
rtoes -1.76143
lfemur -23.4657 -6.7512 -23.1256
ltibia 41.9447
lfoot -20.5806 20.5901
ltoes -3.16785
260
root 1.35851 17.33 -26.8948 10.9613 8.9297 -1.98518
lowerback 9.0587 0.556327 -5.23346
upperback -0.730755 0.22573 1.00353
thorax -5.88835 0.294423 3.97387
lowerneck -11.6759 -0.486529 7.45293
upperneck 16.8686 -1.31353 -4.21991
head 7.00149 -0.527295 -2.72514
rclavicle 2.08724e-014 -6.36111e-015
rhumerus -33.8729 -4.77052 -79.9805
rradius 35.7148
rwrist -10.4952
rhand -14.7215 -4.12626
rfingers 7.12502
rthumb 11.4334 -33.7945
lclavicle 2.08724e-014 -6.36111e-015
lhumerus -36.358 -4.74077 87.3923
lradius 38.8104
lwrist 12.1377
lhand -12.7181 0.127834
lfingers 7.12502
lthumb 13.3649 29.6792
rfemur -24.0132 -12.961 15.2877
rtibia 74.7501
rfoot 6.48836 -11.6266
rtoes -1.85028
lfemur -23.8255 -6.80388 -23.1181
ltibia 42.4448
lfoot -20.777 20.6744
ltoes -3.36103
261
root 1.35983 17.3062 -26.8657 11.1588 8.99355 -1.96788
lowerback 9.15021 0.51855 -5.11458
upperback -0.750731 0.186457 1.05974
thorax -5.95655 0.274633 3.97191
lowerneck -11.595 -0.484647 7.33126
upperneck 16.5981 -1.28629 -4.20865
head 6.9023 -0.524837 -2.69335
rclavicle -1.67973e-014 -5.96354e-015
rhumerus -33.7973 -4.45288 -80.0263
rradius 35.901
rwrist -10.6324
rhand -14.7127 -4.13971
rfingers 7.12502
rthumb 11.4418 -33.8075
lclavicle -1.67973e-014 -5.96354e-015
lhumerus -36.4021 -4.71056 87.5457
lradius 39.2812
lwrist 12.2442
lhand -12.7844 -0.0304226
lfingers 7.12502
lthumb 13.301 29.5251
rfemur -24.1296 -12.9676 15.3346
rtibia 75.0152
rfoot 6.80202 -11.5294
rtoes -2.03388
lfemur -24.2054 -6.86178 -23.1138
ltibia 42.9668
lfoot -20.987 20.7653
ltoes -3.54614
262
root 1.36123 17.281 -26.8359 11.3626 9.0519 -1.94184
lowerback 9.23667 0.515534 -4.98724
upperback -0.770824 0.193276 1.08617
thorax -6.02683 0.276701 3.92715
lowerneck -11.5194 -0.519191 7.26213
upperneck 16.3242 -1.31947 -4.19745
head 6.79923 -0.547986 -2.67571
rclavicle 3.68249e-014 0
rhumerus -33.7477 -4.24304 -80.0653
rradius 36.1
rwrist -10.7638
rhand -14.7078 -4.14644
rfingers 7.12502
rthumb 11.4465 -33.814
lclavicle 3.68249e-014 0
lhumerus -36.4366 -4.82355 87.7102
lradius 39.8016
lwrist 12.4075
lhand -12.8794 -0.193793
lfingers 7.12502
lthumb 13.2095 29.3677
rfemur -24.2463 -12.9598 15.37
rtibia 75.2617
rfoot 7.10193 -11.4319
rtoes -2.27538
lfemur -24.596 -6.92979 -23.1187
ltibia 43.5061
lfoot -21.2077 20.8681
ltoes -3.72566
263
root 1.3628 17.2541 -26.8054 11.5694 9.10261 -1.90529
lowerback 9.32356 0.588078 -4.82878
upperback -0.790066 0.300699 1.04837
thorax -6.10617 0.326147 3.78216
lowerneck -11.4591 -0.641293 7.27004
upperneck 16.0571 -1.4944 -4.14703
head 6.69274 -0.631168 -2.67057
rclavicle 1.2921e-015 -1.39149e-015
rhumerus -33.7514 -4.29789 -80.0819
rradius 36.3152
rwrist -10.8771
rhand -14.7033 -4.1491
rfingers 7.12502
rthumb 11.4509 -33.8164
lclavicle 1.2921e-015 -1.39149e-015
lhumerus -36.4413 -5.23512 87.8965
lradius 40.3639
lwrist 12.6374
lhand -13 -0.34511
lfingers 7.12502
lthumb 13.0932 29.2239
rfemur -24.3589 -12.9384 15.3896
rtibia 75.4878
rfoot 7.3912 -11.3312
rtoes -2.52139
lfemur -24.9899 -7.01061 -23.1357
ltibia 44.0587
lfoot -21.4348 20.9858
ltoes -3.90924
264
root 1.3646 17.2258 -26.7741 11.7761 9.145 -1.85979
lowerback 9.41309 0.711479 -4.64727
upperback -0.803942 0.476015 0.965718
thorax -6.18657 0.407041 3.56635
lowerneck -11.4289 -0.81572 7.33697
upperneck 15.8045 -1.75657 -4.07643
head 6.59106 -0.75137 -2.67633
rclavicle 6.95746e-016 -1.13307e-014
rhumerus -33.7753 -4.53119 -80.0858
rradius 36.5355
rwrist -10.9768
rhand -14.693 -4.15025
rfingers 7.12502
rthumb 11.4608 -33.817
lclavicle 6.95746e-016 -1.13307e-014
lhumerus -36.4157 -5.84693 88.0925
lradius 40.9684
lwrist 12.9153
lhand -13.1378 -0.469848
lfingers 7.12502
lthumb 12.9604 29.1076
rfemur -24.4645 -12.9046 15.3942
rtibia 75.691
rfoot 7.68206 -11.2255
rtoes -2.6887
lfemur -25.3819 -7.10185 -23.1637
ltibia 44.6222
lfoot -21.6652 21.1169
ltoes -4.10789
265
root 1.3666 17.1959 -26.742 11.9804 9.17947 -1.80768
lowerback 9.50674 0.858795 -4.45264
upperback -0.809948 0.683482 0.859933
thorax -6.26178 0.502269 3.31333
lowerneck -11.4372 -1.00655 7.43919
upperneck 15.5713 -2.0502 -4.00209
head 6.50039 -0.88473 -2.68968
rclavicle -1.73937e-015 7.7526e-015
rhumerus -33.7892 -4.84707 -80.0877
rradius 36.7518
rwrist -11.0703
rhand -14.6723 -4.15729
rfingers 7.12502
rthumb 11.4808 -33.8229
lclavicle -1.73937e-015 7.7526e-015
lhumerus -36.3627 -6.55294 88.2859
lradius 41.6154
lwrist 13.2181
lhand -13.2836 -0.559315
lfingers 7.12502
lthumb 12.8198 29.027
rfemur -24.5614 -12.859 15.3867
rtibia 75.8696
rfoot 7.98863 -11.1155
rtoes -2.73868
lfemur -25.7692 -7.19903 -23.2003
ltibia 45.1959
lfoot -21.8968 21.2588
ltoes -4.33121
266
root 1.36873 17.1646 -26.7093 12.1808 9.20646 -1.75204
lowerback 9.60499 0.998564 -4.26017
upperback -0.809094 0.881055 0.75785
thorax -6.32937 0.592191 3.06634
lowerneck -11.4732 -1.1785 7.53644
upperneck 15.3562 -2.31748 -3.93412
head 6.42196 -1.00653 -2.70237
rclavicle 7.60351e-015 -7.95139e-016
rhumerus -33.7696 -5.12935 -80.099
rradius 36.9575
rwrist -11.166
rhand -14.64 -4.17714
rfingers 7.12502
rthumb 11.512 -33.841
lclavicle 7.60351e-015 -7.95139e-016
lhumerus -36.2918 -7.22827 88.4645
lradius 42.3021
lwrist 13.5214
lhand -13.4295 -0.61218
lfingers 7.12502
lthumb 12.6792 28.9829
rfemur -24.6495 -12.8017 15.3721
rtibia 76.0229
rfoot 8.31833 -11.0041
rtoes -2.64644
lfemur -26.1512 -7.29484 -23.2424
ltibia 45.7803
lfoot -22.1295 21.4072
ltoes -4.58418
